Coordinates
version=1
nRows=14
nColumns=42
inDegrees=yes

Units are S.I. units (second, meters, Newtons, ...)
If the header above contains a line with 'inDegrees', this indicates whether rotational values are in degrees (yes) or radians (no).

endheader
time	pelvis_tilt	pelvis_list	pelvis_rotation	pelvis_tx	pelvis_ty	pelvis_tz	hip_flexion_r	hip_adduction_r	hip_rotation_r	knee_angle_r	knee_adduction_r	knee_angle_r_beta	ankle_angle_r	subtalar_angle_r	mtp_angle_r	hip_flexion_l	hip_adduction_l	hip_rotation_l	knee_angle_l	knee_adduction_l	knee_angle_l_beta	ankle_angle_l	subtalar_angle_l	mtp_angle_l	lumbar_extension	lumbar_bending	lumbar_rotation	arm_flex_r	arm_add_r	arm_rot_r	elbow_flex_r	pro_sup_r	wrist_flex_r	wrist_dev_r	arm_flex_l	arm_add_l	arm_rot_l	elbow_flex_l	pro_sup_l	wrist_flex_l	wrist_dev_l
      6.00000000	      7.22179642	     -3.51023938	     -5.65590069	      0.51218967	      0.95179274	     -0.15104357	      6.88178354	    -10.36266890	    -16.87890719	     38.72662778	      3.84631318	      0.67590716	      6.73832037	      5.04793412	     -7.50331788	     -1.43789233	     -2.95213865	    -23.66313172	     24.30117799	      1.15820248	      0.42413557	     18.86779114	      6.23521896	     -7.50331788	    -18.11148993	      2.52982901	     -1.46917448	      7.40650548	    -10.07495693	      5.19493087	     40.47413463	     90.00000001	      0.00000000	      0.00000000	    -14.84187869	     -9.84690634	     -3.25266509	     50.06403110	     90.00000001	      0.00000000	      0.00000000
      6.01000000	      7.35481521	     -3.87532370	     -5.63418175	      0.51347606	      0.95232566	     -0.15086228	      6.74142552	     -9.75621010	    -17.08477465	     37.04720853	      3.90626769	      0.64659577	      7.12187150	      7.07892627	     -7.50319625	     -1.74813608	     -3.33765650	    -23.28539993	     24.28040031	      1.28717066	      0.42377293	     18.89476861	      5.75459804	     -7.50319625	    -18.37377531	      2.86025471	     -1.36318018	      7.51269085	     -9.94113782	      4.47041887	     40.02659408	     90.00000001	      0.00000000	      0.00000000	    -14.73468930	     -9.75233620	     -3.27307524	     49.89550763	     90.00000001	      0.00000000	      0.00000000
      6.02000000	      7.21539492	     -3.80472247	     -5.74802612	      0.51456411	      0.95204072	     -0.15061943	      7.26150075	     -9.77062346	    -16.98778104	     35.99466384	      4.23356949	      0.62822540	      7.21031446	      7.60605824	     -7.50316610	     -1.64140796	     -3.21576019	    -23.21028639	     24.32114268	      1.22260479	      0.42448402	     18.98509462	      5.65770352	     -7.50316610	    -18.30187394	      2.71228398	     -1.29555441	      7.47189021	     -9.93917124	      4.44003931	     39.91953318	     90.00000001	      0.00000000	      0.00000000	    -14.73412156	     -9.74788483	     -3.25491792	     49.87200514	     90.00000001	      0.00000000	      0.00000000
      6.03000000	      7.21164201	     -3.95145465	     -5.82963227	      0.51588204	      0.95206698	     -0.15036215	      7.47229180	     -9.55523187	    -17.15117725	     34.73900775	      4.53689204	      0.60631006	      7.39203224	      8.90388238	     -7.50310494	     -1.77235648	     -3.42322163	    -23.20511660	     24.36424784	      1.37412357	      0.42523634	     19.09892207	      5.33614215	     -7.50310494	    -18.37464430	      2.80860565	     -1.17590206	      7.49451050	     -9.95117614	      4.21142164	     39.64553876	     90.00000001	      0.00000000	      0.00000000	    -14.65637080	     -9.67800316	     -3.25172992	     49.68742864	     90.00000001	      0.00000000	      0.00000000
      6.04000000	      7.10664908	     -3.97235869	     -5.91036792	      0.51704961	      0.95182535	     -0.15014949	      7.88028687	     -9.45249188	    -17.30258996	     33.57976991	      4.77147225	      0.58607755	      7.42446308	      9.98683274	     -7.50305312	     -1.72668700	     -3.41936414	    -23.11186456	     24.39779557	      1.35432260	      0.42582186	     19.18508955	      5.15375707	     -7.50305312	    -18.34515225	      2.78349692	     -1.11032442	      7.47848828	     -9.96034531	      4.06421281	     39.53161374	     90.00000001	      0.00000000	      0.00000000	    -14.62265162	     -9.61642101	     -3.24461762	     49.62690368	     90.00000001	      0.00000000	      0.00000000
      6.05000000	      6.99275337	     -3.85989526	     -6.03695621	      0.51832305	      0.95145063	     -0.14979226	      8.44259996	     -9.52466716	    -17.55179436	     32.74423393	      4.96023298	      0.57149469	      7.46112091	     10.27608790	     -7.50304254	     -1.71452473	     -3.31215913	    -23.19717305	     24.36816332	      1.42132199	      0.42530468	     19.28044171	      5.08282831	     -7.50304254	    -18.27030936	      2.58782333	     -1.02534220	      7.40199939	     -9.99822524	      4.04635965	     39.45443980	     90.00000001	      0.00000000	      0.00000000	    -14.62070309	     -9.60926529	     -3.25119084	     49.63069185	     90.00000001	      0.00000000	      0.00000000
      6.06000000	      6.84139862	     -3.91752931	     -6.10985618	      0.51936381	      0.95115405	     -0.14961205	      8.80242007	     -9.34086187	    -17.44704837	     31.38027616	      5.35090865	      0.54768914	      7.30821241	     11.67585516	     -7.50301000	     -1.54182464	     -3.32871712	    -23.05692945	     24.51397287	      1.30858159	      0.42784954	     19.39036386	      4.88912748	     -7.50301000	    -18.22092710	      2.62718734	     -0.96772129	      7.42617763	    -10.02930632	      3.91771600	     39.34895256	     90.00000001	      0.00000000	      0.00000000	    -14.55297831	     -9.52137077	     -3.22633399	     49.47705751	     90.00000001	      0.00000000	      0.00000000
      6.07000000	      6.90746483	     -4.07812515	     -6.09534588	      0.52071537	      0.95118042	     -0.14923078	      8.92976122	     -9.03467737	    -18.45954068	     30.20188637	      5.12883873	      0.52712236	      7.34831517	     14.24067102	     -7.50292138	     -1.70646444	     -3.61067308	    -22.92721740	     24.67666327	      1.51498625	      0.43068902	     19.49439747	      4.58455744	     -7.50292138	    -18.38573210	      2.74850472	     -0.91739890	      7.43724703	    -10.01228875	      3.60922780	     39.25724296	     90.00000001	      0.00000000	      0.00000000	    -14.41485207	     -9.47424543	     -3.26800181	     49.27285249	     90.00000001	      0.00000000	      0.00000000
      6.08000000	      6.73336633	     -3.95588002	     -6.20452147	      0.52188765	      0.95066411	     -0.14894446	      9.46879205	     -9.11553767	    -18.57242466	     29.28297674	      5.49595792	      0.51108436	      7.17774479	     15.00929527	     -7.50289615	     -1.54875568	     -3.43138351	    -22.89660478	     24.71423776	      1.41548383	      0.43134482	     19.59678178	      4.52309658	     -7.50289615	    -18.26647019	      2.58732322	     -0.87504434	      7.40534898	    -10.06157140	      3.59922607	     39.21401829	     90.00000001	      0.00000000	      0.00000000	    -14.39177800	     -9.45761200	     -3.25252759	     49.24387661	     90.00000001	      0.00000000	      0.00000000
      6.09000000	      6.70336365	     -4.01736630	     -6.20163254	      0.52322917	      0.95040845	     -0.14865573	      9.75004564	     -8.96709206	    -19.48421965	     28.33583155	      5.45136265	      0.49455356	      7.02015352	     17.20475260	     -7.50280139	     -1.56506590	     -3.55996433	    -22.85257111	     24.86454013	      1.49085284	      0.43396809	     19.73469334	      4.32803215	     -7.50280139	    -18.31579099	      2.63604928	     -0.86339065	      7.40192510	    -10.09917072	      3.47463073	     39.18655991	     90.00000001	      0.00000000	      0.00000000	    -14.27178331	     -9.38891698	     -3.24249204	     49.06523057	     90.00000001	      0.00000000	      0.00000000
      6.10000000	      6.63382348	     -3.90721884	     -6.34337121	      0.52457264	      0.94996387	     -0.14815263	     10.24926713	     -9.03746597	    -19.80482747	     27.78997858	      5.73412894	      0.48502663	      6.96401639	     17.38616089	     -7.50279658	     -1.60818166	     -3.45612611	    -22.95120019	     24.84493770	      1.53410992	      0.43362597	     19.82908696	      4.28371361	     -7.50279658	    -18.29813011	      2.46180916	     -0.77983693	      7.38579909	    -10.13207846	      3.48589258	     39.13541463	     90.00000001	      0.00000000	      0.00000000	    -14.25329497	     -9.36327537	     -3.23735168	     49.05200179	     90.00000001	      0.00000000	      0.00000000
      6.11000000	      6.46995010	     -3.87126969	     -6.36891339	      0.52581941	      0.94946749	     -0.14790925	     10.58812657	     -9.00786499	    -20.08635912	     26.77371623	      6.13581023	      0.46728950	      6.28830711	     18.81754638	     -7.50276143	     -1.37987190	     -3.40550935	    -22.85570735	     25.08112980	      1.39789593	      0.43774830	     19.98834107	      4.14995802	     -7.50276143	    -18.19478178	      2.43058794	     -0.78187210	      7.37075240	    -10.18719312	      3.44574692	     39.12009511	     90.00000001	      0.00000000	      0.00000000	    -14.12488071	     -9.30522500	     -3.19941407	     48.83213734	     90.00000001	      0.00000000	      0.00000000
      6.12000000	      6.39920924	     -3.82852886	     -6.37784570	      0.52726778	      0.94903377	     -0.14759484	     10.89390056	     -8.96101762	    -20.77018393	     26.05228710	      6.24414600	      0.45469819	      5.82306666	     20.05266614	     -7.50272562	     -1.33794151	     -3.39024159	    -22.79834906	     25.22751901	      1.40996229	      0.44030327	     20.13934467	      4.06651175	     -7.50272562	    -18.17352577	      2.38928378	     -0.77416487	      7.34575176	    -10.24027181	      3.39896613	     39.12340253	     90.00000001	      0.00000000	      0.00000000	    -14.02406188	     -9.26187554	     -3.18118874	     48.68298384	     90.00000001	      0.00000000	      0.00000000
      6.13000000	      6.36953247	     -3.72601350	     -6.48012496	      0.52881253	      0.94860344	     -0.14704283	     11.26127197	     -8.97534584	    -21.20182495	     25.68472524	      6.42688565	      0.44828302	      5.75383324	     20.20577125	     -7.50272210	     -1.43911625	     -3.32583279	    -22.90782406	     25.21664708	      1.49517273	      0.44011352	     20.23184464	      4.02069539	     -7.50272210	    -18.17744620	      2.24577737	     -0.70308444	      7.32731694	    -10.28093247	      3.40282785	     39.07411901	     90.00000001	      0.00000000	      0.00000000	    -13.96782176	     -9.24397718	     -3.18013607	     48.66494490	     90.00000001	      0.00000000	      0.00000000
